<svg xmlns="http://www.w3.org/2000/svg" xmlns:xlink="http://www.w3.org/1999/xlink" width="500" zoomAndPan="magnify" viewBox="0 0 375 374.999991" height="500" preserveAspectRatio="xMidYMid meet" version="1.0"><defs><clipPath id="197ced9e48"><path d="M 16.089844 16.089844 L 358.910156 16.089844 L 358.910156 358.910156 L 16.089844 358.910156 Z M 16.089844 16.089844 " clip-rule="nonzero"/></clipPath><clipPath id="5933ee4f4d"><path d="M 187.5 16.089844 C 92.832031 16.089844 16.089844 92.832031 16.089844 187.5 C 16.089844 282.167969 92.832031 358.910156 187.5 358.910156 C 282.167969 358.910156 358.910156 282.167969 358.910156 187.5 C 358.910156 92.832031 282.167969 16.089844 187.5 16.089844 Z M 187.5 16.089844 " clip-rule="nonzero"/></clipPath><clipPath id="3f0282a5df"><path d="M 93.53125 55.613281 L 280.667969 55.613281 L 280.667969 75 L 93.53125 75 Z M 93.53125 55.613281 " clip-rule="nonzero"/></clipPath><clipPath id="a044655437"><path d="M 93.53125 299 L 280.667969 299 L 280.667969 318.402344 L 93.53125 318.402344 Z M 93.53125 299 " clip-rule="nonzero"/></clipPath><clipPath id="b4b417a88b"><path d="M 153 205.964844 L 222 205.964844 L 222 292 L 153 292 Z M 153 205.964844 " clip-rule="nonzero"/></clipPath><clipPath id="a000d96abe"><path d="M 156.03125 77.847656 L 219.738281 77.847656 L 219.738281 157.480469 L 156.03125 157.480469 Z M 156.03125 77.847656 " clip-rule="nonzero"/></clipPath></defs><rect x="-37.5" width="450" fill="#ffffff" y="-37.499999" height="449.999989" fill-opacity="1"/><rect x="-37.5" width="450" fill="#ffffff" y="-37.499999" height="449.999989" fill-opacity="1"/><g clip-path="url(#197ced9e48)"><g clip-path="url(#5933ee4f4d)"><path fill="#231f20" d="M 16.089844 16.089844 L 358.910156 16.089844 L 358.910156 358.910156 L 16.089844 358.910156 Z M 16.089844 16.089844 " fill-opacity="1" fill-rule="nonzero"/></g></g><path fill="#ffffff" d="M 244.65625 231.445312 C 235.71875 220.0625 223.757812 213.320312 211.445312 204.90625 C 200.28125 197.28125 193.21875 188.101562 198.085938 175.820312 C 200.214844 170.453125 203.785156 167.660156 209.171875 164.34375 C 211.089844 163.171875 212.984375 161.988281 214.859375 160.789062 C 218.59375 158.398438 222.25 155.917969 225.75 153.308594 C 238.523438 143.730469 249.019531 132.109375 256.148438 119.050781 C 263.757812 105.03125 267.828125 88.726562 268.386719 73.332031 C 268.386719 73.332031 230.550781 73.332031 187.148438 73.332031 C 143.726562 73.332031 105.910156 73.332031 105.910156 73.332031 C 106.472656 88.726562 110.535156 105.03125 118.164062 119.050781 C 125.265625 132.109375 135.746094 143.730469 148.542969 153.308594 C 152.050781 155.917969 155.699219 158.398438 159.4375 160.789062 C 161.308594 161.988281 163.207031 163.171875 165.117188 164.34375 C 170.519531 167.660156 174.097656 170.453125 176.207031 175.820312 C 181.070312 188.101562 174.03125 197.28125 162.851562 204.90625 C 150.523438 213.320312 138.578125 220.0625 129.636719 231.445312 C 120.652344 242.878906 113.421875 255.84375 109.667969 269.167969 C 107.414062 277.226562 106.199219 285.707031 105.910156 293.9375 L 268.386719 293.9375 C 268.085938 285.707031 266.882812 277.226562 264.617188 269.167969 C 260.898438 255.84375 253.660156 242.878906 244.65625 231.445312 " fill-opacity="1" fill-rule="nonzero"/><path fill="#231f20" d="M 244.65625 231.445312 L 245.65625 230.65625 C 241.09375 224.84375 235.773438 220.234375 230.070312 216.035156 C 224.375 211.835938 218.292969 208.042969 212.164062 203.851562 C 207.878906 200.929688 204.253906 197.792969 201.738281 194.417969 C 199.222656 191.039062 197.800781 187.460938 197.800781 183.488281 C 197.800781 181.246094 198.25 178.859375 199.269531 176.292969 C 200.273438 173.765625 201.578125 171.90625 203.296875 170.226562 C 205.015625 168.554688 207.175781 167.070312 209.839844 165.429688 L 209.835938 165.433594 C 211.765625 164.253906 213.660156 163.066406 215.546875 161.863281 C 219.300781 159.460938 222.980469 156.964844 226.511719 154.332031 L 226.515625 154.328125 C 239.417969 144.65625 250.035156 132.90625 257.265625 119.664062 L 257.265625 119.660156 C 264.984375 105.441406 269.09375 88.964844 269.664062 73.378906 C 269.675781 73.035156 269.546875 72.699219 269.304688 72.449219 C 269.066406 72.199219 268.734375 72.058594 268.386719 72.058594 C 268.386719 72.058594 230.550781 72.058594 187.148438 72.058594 C 165.4375 72.058594 145.128906 72.058594 130.246094 72.058594 C 122.804688 72.058594 116.71875 72.058594 112.496094 72.058594 C 110.382812 72.058594 108.738281 72.058594 107.621094 72.058594 C 106.5 72.058594 105.910156 72.058594 105.910156 72.058594 C 105.5625 72.058594 105.230469 72.199219 104.992188 72.449219 C 104.753906 72.699219 104.621094 73.035156 104.636719 73.378906 C 105.203125 88.964844 109.3125 105.441406 117.046875 119.664062 C 124.242188 132.902344 134.855469 144.660156 147.777344 154.328125 L 147.78125 154.332031 C 151.316406 156.964844 154.992188 159.460938 158.75 161.863281 L 158.75 161.859375 C 160.628906 163.066406 162.535156 164.257812 164.449219 165.433594 C 167.125 167.074219 169.289062 168.554688 171.007812 170.226562 C 172.726562 171.90625 174.023438 173.765625 175.019531 176.289062 L 175.019531 176.292969 C 176.039062 178.863281 176.496094 181.25 176.496094 183.496094 C 176.492188 187.46875 175.074219 191.042969 172.558594 194.421875 C 170.042969 197.796875 166.421875 200.929688 162.132812 203.851562 C 155.996094 208.042969 149.917969 211.835938 144.21875 216.035156 C 138.519531 220.234375 133.199219 224.84375 128.632812 230.65625 C 119.566406 242.199219 112.25 255.296875 108.441406 268.820312 L 108.441406 268.824219 C 106.15625 276.996094 104.929688 285.570312 104.636719 293.894531 C 104.621094 294.242188 104.753906 294.578125 104.992188 294.828125 C 105.234375 295.078125 105.5625 295.214844 105.910156 295.214844 L 268.386719 295.214844 C 268.734375 295.214844 269.066406 295.078125 269.304688 294.828125 C 269.546875 294.578125 269.675781 294.238281 269.664062 293.894531 C 269.355469 285.570312 268.140625 276.996094 265.847656 268.820312 L 265.847656 268.824219 C 262.066406 255.296875 254.746094 242.199219 245.65625 230.65625 L 243.65625 232.234375 C 252.574219 243.5625 259.730469 256.394531 263.386719 269.511719 C 265.625 277.464844 266.8125 285.847656 267.113281 293.988281 L 268.386719 293.9375 L 268.386719 292.664062 L 105.910156 292.664062 L 105.910156 293.9375 L 107.183594 293.984375 C 107.472656 285.847656 108.671875 277.464844 110.894531 269.511719 L 110.894531 269.515625 C 114.585938 256.394531 121.738281 243.5625 130.640625 232.234375 C 135.015625 226.664062 140.136719 222.210938 145.730469 218.089844 C 151.320312 213.96875 157.378906 210.1875 163.570312 205.960938 C 168 202.9375 171.835938 199.65625 174.605469 195.949219 C 177.363281 192.253906 179.050781 188.097656 179.046875 183.496094 C 179.046875 180.902344 178.515625 178.183594 177.394531 175.351562 L 177.394531 175.355469 C 176.277344 172.511719 174.734375 170.289062 172.785156 168.398438 C 170.839844 166.503906 168.511719 164.933594 165.785156 163.257812 C 163.882812 162.085938 161.988281 160.90625 160.125 159.714844 L 160.125 159.710938 C 156.40625 157.335938 152.78125 154.871094 149.300781 152.285156 L 149.304688 152.285156 C 136.640625 142.804688 126.28125 131.316406 119.285156 118.441406 C 111.761719 104.621094 107.734375 88.492188 107.183594 73.289062 L 105.910156 73.332031 L 105.910156 74.609375 C 105.910156 74.609375 143.726562 74.609375 187.148438 74.609375 C 230.550781 74.609375 268.386719 74.609375 268.386719 74.609375 L 268.386719 73.332031 L 267.113281 73.289062 C 266.558594 88.492188 262.535156 104.621094 255.023438 118.441406 C 248 131.316406 237.632812 142.804688 224.984375 152.289062 L 224.988281 152.285156 C 221.519531 154.871094 217.882812 157.335938 214.171875 159.710938 C 212.300781 160.90625 210.414062 162.085938 208.507812 163.257812 L 208.503906 163.257812 C 205.78125 164.933594 203.464844 166.503906 201.515625 168.398438 C 199.574219 170.289062 198.023438 172.507812 196.898438 175.351562 C 195.777344 178.179688 195.242188 180.894531 195.246094 183.488281 C 195.242188 188.09375 196.929688 192.25 199.691406 195.949219 C 202.460938 199.652344 206.296875 202.933594 210.722656 205.960938 C 216.910156 210.1875 222.96875 213.972656 228.558594 218.089844 C 234.152344 222.210938 239.277344 226.664062 243.652344 232.234375 L 244.65625 231.445312 " fill-opacity="1" fill-rule="nonzero"/><path fill="#ffffff" d="M 279.394531 68.746094 C 279.394531 71.289062 277.34375 73.332031 274.820312 73.332031 L 99.488281 73.332031 C 96.945312 73.332031 94.890625 71.289062 94.890625 68.746094 L 94.890625 61.464844 C 94.890625 58.929688 96.945312 56.886719 99.488281 56.886719 L 274.820312 56.886719 C 277.34375 56.886719 279.394531 58.929688 279.394531 61.464844 L 279.394531 68.746094 " fill-opacity="1" fill-rule="nonzero"/><g clip-path="url(#3f0282a5df)"><path fill="#231f20" d="M 279.394531 68.746094 L 278.121094 68.746094 C 278.117188 70.589844 276.636719 72.058594 274.820312 72.058594 L 99.488281 72.058594 C 97.640625 72.058594 96.167969 70.585938 96.164062 68.746094 L 96.164062 61.464844 C 96.167969 59.640625 97.640625 58.164062 99.488281 58.160156 L 274.820312 58.160156 C 275.734375 58.160156 276.550781 58.53125 277.152344 59.128906 C 277.75 59.726562 278.117188 60.546875 278.121094 61.464844 L 278.121094 68.746094 L 280.667969 68.746094 L 280.667969 61.464844 C 280.667969 58.226562 278.046875 55.609375 274.820312 55.609375 L 99.488281 55.609375 C 97.871094 55.609375 96.394531 56.265625 95.335938 57.320312 C 94.273438 58.375 93.613281 59.847656 93.613281 61.464844 L 93.613281 68.746094 C 93.613281 70.363281 94.273438 71.839844 95.332031 72.898438 C 96.394531 73.957031 97.871094 74.613281 99.488281 74.609375 L 274.820312 74.609375 C 276.429688 74.609375 277.902344 73.957031 278.957031 72.898438 C 280.015625 71.839844 280.671875 70.363281 280.667969 68.746094 L 279.394531 68.746094 " fill-opacity="1" fill-rule="nonzero"/></g><path fill="#ffffff" d="M 279.394531 312.511719 C 279.394531 315.058594 277.34375 317.128906 274.820312 317.128906 L 99.488281 317.128906 C 96.945312 317.128906 94.890625 315.058594 94.890625 312.511719 L 94.890625 305.253906 C 94.890625 302.699219 96.945312 300.652344 99.488281 300.652344 L 274.820312 300.652344 C 277.34375 300.652344 279.394531 302.699219 279.394531 305.253906 L 279.394531 312.511719 " fill-opacity="1" fill-rule="nonzero"/><g clip-path="url(#a044655437)"><path fill="#231f20" d="M 279.394531 312.511719 L 278.121094 312.511719 C 278.117188 313.4375 277.746094 314.265625 277.144531 314.875 C 276.542969 315.484375 275.726562 315.851562 274.820312 315.851562 L 99.488281 315.851562 C 98.566406 315.851562 97.746094 315.480469 97.140625 314.875 C 96.535156 314.265625 96.167969 313.4375 96.164062 312.511719 L 96.164062 305.253906 C 96.167969 303.398438 97.640625 301.933594 99.488281 301.929688 L 274.820312 301.929688 C 276.636719 301.929688 278.117188 303.398438 278.121094 305.253906 L 278.121094 312.511719 L 280.667969 312.511719 L 280.667969 305.253906 C 280.671875 303.632812 280.015625 302.152344 278.957031 301.09375 C 277.902344 300.03125 276.429688 299.378906 274.820312 299.378906 L 99.488281 299.378906 C 97.871094 299.378906 96.394531 300.027344 95.332031 301.09375 C 94.269531 302.148438 93.613281 303.632812 93.613281 305.253906 L 93.613281 312.511719 C 93.613281 315.757812 96.238281 318.40625 99.488281 318.40625 L 274.820312 318.40625 C 278.058594 318.402344 280.667969 315.757812 280.667969 312.511719 L 279.394531 312.511719 " fill-opacity="1" fill-rule="nonzero"/></g><g clip-path="url(#b4b417a88b)"><path fill="#040606" d="M 177.886719 228.613281 L 197.132812 228.613281 C 196.898438 229.625 197.304688 230.667969 198.144531 231.253906 C 209.957031 239.480469 217.789062 252.308594 219.742188 266.621094 C 220.734375 273.902344 216.984375 281.019531 210.433594 284.28125 C 195.988281 291.488281 179.027344 291.488281 164.59375 284.28125 C 158.035156 281.019531 154.292969 273.902344 155.285156 266.621094 C 157.238281 252.308594 165.066406 239.480469 176.878906 231.253906 C 177.722656 230.667969 178.121094 229.625 177.886719 228.613281 Z M 190.644531 207.914062 C 190.910156 207.90625 191.171875 207.976562 191.40625 208.121094 L 194.832031 210.292969 C 196.027344 211.050781 197.507812 211.179688 198.8125 210.648438 L 202.488281 209.148438 C 204.171875 208.761719 205.921875 209.394531 206.976562 210.777344 C 201.488281 213.460938 197.191406 218.097656 194.921875 223.785156 C 194.734375 224.269531 194.695312 224.796875 194.808594 225.296875 L 178.832031 225.296875 C 179.007812 224.546875 178.832031 223.761719 178.359375 223.160156 C 175.445312 219.472656 171.730469 216.503906 167.496094 214.480469 L 170.949219 211.414062 C 171.035156 211.335938 171.144531 211.316406 171.242188 211.335938 L 173.167969 211.859375 C 174.332031 212.175781 175.578125 211.988281 176.59375 211.335938 L 180.390625 208.949219 L 183.125 210.128906 C 184.433594 210.695312 185.933594 210.589844 187.160156 209.847656 L 190.03125 208.105469 C 190.210938 207.992188 190.429688 207.921875 190.644531 207.914062 Z M 190.578125 205.972656 C 190.03125 205.996094 189.496094 206.15625 189.023438 206.441406 L 186.152344 208.1875 C 185.46875 208.601562 184.628906 208.664062 183.890625 208.347656 L 181.085938 207.136719 C 180.546875 206.894531 179.921875 206.949219 179.417969 207.265625 L 175.566406 209.691406 C 175 210.054688 174.316406 210.152344 173.671875 209.976562 L 171.746094 209.464844 C 171.019531 209.265625 170.238281 209.449219 169.671875 209.953125 L 165.292969 213.84375 C 164.820312 214.261719 164.773438 214.984375 165.1875 215.460938 C 165.300781 215.589844 165.441406 215.6875 165.601562 215.757812 C 169.996094 217.636719 173.867188 220.597656 176.835938 224.367188 C 177.039062 224.617188 176.992188 224.972656 176.746094 225.175781 C 176.648438 225.25 176.519531 225.296875 176.390625 225.296875 L 174.691406 225.296875 C 173.785156 225.296875 173.046875 226.035156 173.046875 226.957031 C 173.046875 227.871094 173.785156 228.613281 174.691406 228.613281 L 175.453125 228.613281 C 175.761719 228.613281 176.015625 228.867188 176.015625 229.1875 C 176.015625 229.375 175.925781 229.546875 175.773438 229.65625 C 163.519531 238.191406 155.386719 251.507812 153.367188 266.347656 C 152.253906 274.46875 156.433594 282.386719 163.730469 286.027344 C 178.714844 293.496094 196.3125 293.496094 211.296875 286.027344 C 218.59375 282.386719 222.761719 274.46875 221.660156 266.347656 C 219.636719 251.507812 211.507812 238.191406 199.25 229.65625 C 198.988281 229.480469 198.925781 229.117188 199.101562 228.859375 C 199.210938 228.710938 199.386719 228.613281 199.574219 228.613281 L 200.324219 228.613281 C 201.234375 228.613281 201.976562 227.871094 201.976562 226.957031 C 201.976562 226.035156 201.234375 225.296875 200.324219 225.296875 L 197.25 225.296875 C 196.9375 225.296875 196.679688 225.039062 196.679688 224.722656 C 196.679688 224.644531 196.695312 224.578125 196.726562 224.511719 C 198.917969 218.996094 203.171875 214.5625 208.582031 212.167969 C 209.160156 211.910156 209.417969 211.238281 209.160156 210.65625 C 209.152344 210.640625 209.148438 210.628906 209.140625 210.613281 C 207.808594 207.921875 204.78125 206.539062 201.886719 207.289062 L 198.085938 208.84375 C 197.355469 209.140625 196.53125 209.0625 195.859375 208.648438 L 192.433594 206.472656 C 191.878906 206.125 191.230469 205.953125 190.578125 205.972656 " fill-opacity="1" fill-rule="nonzero"/></g><path fill="#040606" d="M 184.605469 242.425781 C 179.628906 244.308594 177.113281 249.890625 178.984375 254.890625 C 179.808594 257.105469 181.410156 258.933594 183.484375 260.035156 L 188.886719 262.914062 C 190.332031 263.675781 190.878906 265.472656 190.113281 266.914062 C 189.355469 268.367188 187.566406 268.917969 186.128906 268.148438 C 185.167969 267.632812 184.566406 266.628906 184.566406 265.535156 L 177.878906 265.535156 C 177.878906 269.75 180.597656 273.488281 184.605469 274.757812 L 184.605469 278.820312 L 191.390625 278.820312 L 191.390625 274.394531 C 196.257812 272.234375 198.46875 266.523438 196.328125 261.628906 C 195.449219 259.632812 193.9375 257.996094 192.019531 256.976562 L 186.785156 254.179688 C 185.304688 253.507812 184.640625 251.75 185.3125 250.261719 C 185.988281 248.773438 187.730469 248.109375 189.210938 248.789062 C 190.269531 249.261719 190.945312 250.320312 190.945312 251.484375 L 197.628906 251.484375 C 197.628906 247.449219 195.140625 243.839844 191.390625 242.417969 L 191.390625 238.199219 L 184.605469 238.199219 L 184.605469 242.425781 " fill-opacity="1" fill-rule="nonzero"/><g clip-path="url(#a000d96abe)"><path fill="#040606" d="M 158.683594 83.160156 C 158.683594 81.699219 159.878906 80.507812 161.339844 80.507812 L 207.792969 80.507812 L 207.792969 84.488281 C 207.792969 87.417969 210.171875 89.796875 213.101562 89.796875 L 217.082031 89.796875 L 217.082031 152.171875 C 217.082031 153.632812 215.890625 154.824219 214.429688 154.824219 L 161.339844 154.824219 C 159.878906 154.824219 158.683594 153.632812 158.683594 152.171875 Z M 215.207031 87.144531 L 213.101562 87.144531 C 211.636719 87.144531 210.445312 85.949219 210.445312 84.488281 L 210.445312 82.382812 Z M 161.339844 157.476562 L 214.429688 157.476562 C 217.355469 157.476562 219.738281 155.097656 219.738281 152.171875 L 219.738281 89.570312 C 219.738281 89.007812 219.617188 88.476562 219.398438 87.976562 C 219.382812 87.945312 219.367188 87.925781 219.359375 87.898438 C 219.160156 87.480469 218.90625 87.089844 218.570312 86.753906 L 210.835938 79.019531 C 210.5 78.683594 210.105469 78.421875 209.683594 78.226562 C 209.65625 78.214844 209.644531 78.199219 209.617188 78.195312 C 209.117188 77.972656 208.578125 77.851562 208.019531 77.851562 L 161.339844 77.851562 C 158.410156 77.851562 156.03125 80.234375 156.03125 83.160156 L 156.03125 152.171875 C 156.03125 155.097656 158.410156 157.476562 161.339844 157.476562 " fill-opacity="1" fill-rule="nonzero"/></g><path fill="#040606" d="M 166.648438 96.433594 C 166.648438 95.703125 167.246094 95.105469 167.976562 95.105469 L 175.9375 95.105469 C 176.507812 95.105469 176.984375 95.46875 177.171875 95.976562 L 173.285156 99.863281 L 171.566406 98.148438 C 171.050781 97.628906 170.210938 97.628906 169.691406 98.148438 C 169.171875 98.667969 169.171875 99.507812 169.691406 100.023438 L 172.347656 102.679688 C 172.605469 102.9375 172.941406 103.066406 173.285156 103.066406 C 173.625 103.066406 173.964844 102.9375 174.222656 102.679688 L 177.265625 99.636719 L 177.265625 104.394531 C 177.265625 105.125 176.667969 105.722656 175.9375 105.722656 L 167.976562 105.722656 C 167.246094 105.722656 166.648438 105.125 166.648438 104.394531 Z M 167.976562 108.375 L 175.9375 108.375 C 178.136719 108.375 179.921875 106.59375 179.921875 104.394531 L 179.921875 96.980469 L 183.511719 93.390625 C 184.03125 92.871094 184.03125 92.03125 183.511719 91.511719 C 182.996094 90.996094 182.15625 90.996094 181.636719 91.511719 L 179.105469 94.042969 C 178.375 93.082031 177.234375 92.449219 175.9375 92.449219 L 167.976562 92.449219 C 165.777344 92.449219 163.992188 94.234375 163.992188 96.433594 L 163.992188 104.394531 C 163.992188 106.59375 165.777344 108.375 167.976562 108.375 " fill-opacity="1" fill-rule="nonzero"/><path fill="#040606" d="M 166.648438 115.011719 C 166.648438 114.28125 167.246094 113.683594 167.976562 113.683594 L 175.9375 113.683594 C 176.667969 113.683594 177.265625 114.28125 177.265625 115.011719 L 177.265625 122.972656 C 177.265625 123.703125 176.667969 124.300781 175.9375 124.300781 L 167.976562 124.300781 C 167.246094 124.300781 166.648438 123.703125 166.648438 122.972656 Z M 167.976562 126.957031 L 175.9375 126.957031 C 178.136719 126.957031 179.921875 125.171875 179.921875 122.972656 L 179.921875 115.011719 C 179.921875 112.8125 178.136719 111.03125 175.9375 111.03125 L 167.976562 111.03125 C 165.777344 111.03125 163.992188 112.8125 163.992188 115.011719 L 163.992188 122.972656 C 163.992188 125.171875 165.777344 126.957031 167.976562 126.957031 " fill-opacity="1" fill-rule="nonzero"/><path fill="#040606" d="M 166.648438 133.589844 C 166.648438 132.859375 167.246094 132.265625 167.976562 132.265625 L 175.9375 132.265625 C 176.667969 132.265625 177.265625 132.859375 177.265625 133.589844 L 177.265625 141.554688 C 177.265625 142.285156 176.667969 142.878906 175.9375 142.878906 L 167.976562 142.878906 C 167.246094 142.878906 166.648438 142.285156 166.648438 141.554688 Z M 167.976562 145.535156 L 175.9375 145.535156 C 178.136719 145.535156 179.921875 143.75 179.921875 141.554688 L 179.921875 133.589844 C 179.921875 131.394531 178.136719 129.609375 175.9375 129.609375 L 167.976562 129.609375 C 165.777344 129.609375 163.992188 131.394531 163.992188 133.589844 L 163.992188 141.554688 C 163.992188 143.75 165.777344 145.535156 167.976562 145.535156 " fill-opacity="1" fill-rule="nonzero"/><path fill="#040606" d="M 187.882812 97.757812 L 210.445312 97.757812 C 211.175781 97.757812 211.773438 97.164062 211.773438 96.433594 C 211.773438 95.703125 211.175781 95.105469 210.445312 95.105469 L 187.882812 95.105469 C 187.152344 95.105469 186.554688 95.703125 186.554688 96.433594 C 186.554688 97.164062 187.152344 97.757812 187.882812 97.757812 " fill-opacity="1" fill-rule="nonzero"/><path fill="#040606" d="M 187.882812 104.394531 L 201.15625 104.394531 C 201.886719 104.394531 202.484375 103.796875 202.484375 103.066406 C 202.484375 102.335938 201.886719 101.742188 201.15625 101.742188 L 187.882812 101.742188 C 187.152344 101.742188 186.554688 102.335938 186.554688 103.066406 C 186.554688 103.796875 187.152344 104.394531 187.882812 104.394531 " fill-opacity="1" fill-rule="nonzero"/><path fill="#040606" d="M 187.882812 116.339844 L 210.445312 116.339844 C 211.175781 116.339844 211.773438 115.742188 211.773438 115.011719 C 211.773438 114.28125 211.175781 113.683594 210.445312 113.683594 L 187.882812 113.683594 C 187.152344 113.683594 186.554688 114.28125 186.554688 115.011719 C 186.554688 115.742188 187.152344 116.339844 187.882812 116.339844 " fill-opacity="1" fill-rule="nonzero"/><path fill="#040606" d="M 187.882812 122.972656 L 201.15625 122.972656 C 201.886719 122.972656 202.484375 122.378906 202.484375 121.648438 C 202.484375 120.917969 201.886719 120.320312 201.15625 120.320312 L 187.882812 120.320312 C 187.152344 120.320312 186.554688 120.917969 186.554688 121.648438 C 186.554688 122.378906 187.152344 122.972656 187.882812 122.972656 " fill-opacity="1" fill-rule="nonzero"/><path fill="#040606" d="M 187.882812 134.917969 L 210.445312 134.917969 C 211.175781 134.917969 211.773438 134.320312 211.773438 133.589844 C 211.773438 132.859375 211.175781 132.265625 210.445312 132.265625 L 187.882812 132.265625 C 187.152344 132.265625 186.554688 132.859375 186.554688 133.589844 C 186.554688 134.320312 187.152344 134.917969 187.882812 134.917969 " fill-opacity="1" fill-rule="nonzero"/><path fill="#040606" d="M 187.882812 141.554688 L 201.15625 141.554688 C 201.886719 141.554688 202.484375 140.957031 202.484375 140.226562 C 202.484375 139.496094 201.886719 138.898438 201.15625 138.898438 L 187.882812 138.898438 C 187.152344 138.898438 186.554688 139.496094 186.554688 140.226562 C 186.554688 140.957031 187.152344 141.554688 187.882812 141.554688 " fill-opacity="1" fill-rule="nonzero"/></svg>